Coordinates
version=1
nRows=6
nColumns=38
inDegrees=yes

Units are S.I. units (second, meters, Newtons, ...)
Angles are in degrees.

endheader
time	pelvis_tilt	pelvis_list	pelvis_rotation	pelvis_tx	pelvis_ty	pelvis_tz	hip_flexion_r	hip_adduction_r	hip_rotation_r	knee_angle_r	ankle_angle_r	subtalar_angle_r	mtp_angle_r	hip_flexion_l	hip_adduction_l	hip_rotation_l	knee_angle_l	ankle_angle_l	subtalar_angle_l	mtp_angle_l	lumbar_extension	lumbar_bending	lumbar_rotation	arm_flex_r	arm_add_r	arm_rot_r	elbow_flex_r	pro_sup_r	wrist_flex_r	wrist_dev_r	arm_flex_l	arm_add_l	arm_rot_l	elbow_flex_l	pro_sup_l	wrist_flex_l	wrist_dev_l
      2.44000000	      2.42384874	      5.66706661	     -0.52556692	     -0.03500658	      0.86057744	      2.58683280	     -5.51946893	     -8.47531252	     -6.16692372	    -48.31053520	    -21.17127508	      0.00000000	      0.00000000	     18.50403814	      7.30457217	     -1.75652523	    -18.53616408	     -4.13698830	      0.00000000	      0.00000000	     -5.89068650	     -7.43643805	      3.03950244	     13.95671781	     -9.15601679	     14.30662927	     46.43738974	     89.37498911	      0.00000000	      0.00000000	      6.12731376	    -10.72923670	      0.78279300	    153.64893353	     80.71565266	      0.00000000	      0.00000000
      2.45000000	      2.32890151	      6.02447194	     -0.78815507	     -0.03599661	      0.86234129	      2.58580818	     -2.97094506	     -9.00060670	     -5.29646517	    -52.09564116	    -22.16531602	      0.00000000	      0.00000000	     17.53413468	      7.77606017	     -1.74141281	    -18.27755749	     -3.30929189	      0.00000000	      0.00000000	     -5.89607514	     -7.78924866	      2.94353166	     13.58516080	     -9.15646622	     14.75913708	     45.57949963	     89.19624898	      0.00000000	      0.00000000	      6.11994733	    -10.87738963	      0.37399595	    153.64978057	     81.12742386	      0.00000000	      0.00000000
      2.46000000	      2.24609916	      6.20001902	     -1.13773084	     -0.03698720	      0.86424618	      2.58503221	     -0.48485839	     -9.25396544	     -4.39548969	    -55.52842326	    -21.90944307	      0.00000000	      0.00000000	     16.49374410	      8.01644065	     -1.88125103	    -17.91710756	     -2.54341317	      0.00000000	      0.00000000	     -5.90758499	     -7.96900647	      2.89326266	     13.28373395	     -9.14074602	     15.28682267	     44.49554973	     89.17170096	      0.00000000	      0.00000000	      6.06377935	    -11.03138151	     -0.11033020	    153.63531283	     81.33104715	      0.00000000	      0.00000000
      2.47000000	      2.19851513	      6.20118443	     -1.55813163	     -0.03805017	      0.86621630	      2.58451125	      1.89540884	     -9.21518901	     -3.48912751	    -58.56520858	    -20.48475276	      0.00000000	      0.00000000	     15.36387230	      8.03503347	     -2.19694866	    -17.47403684	     -1.79947647	      0.00000000	      0.00000000	     -5.93671137	     -7.97088193	      2.88087145	     13.03928873	     -9.10747728	     15.87149061	     43.20520714	     89.31025353	      0.00000000	      0.00000000	      5.94416865	    -11.19097990	     -0.66518087	    153.59373457	     81.31999381	      0.00000000	      0.00000000
      2.48000000	      2.18161462	      6.06920938	     -2.06108190	     -0.03897348	      0.86827916	      2.58431326	      4.19241932	     -8.91273281	     -2.56144541	    -61.18720256	    -18.18343134	      0.00000000	      0.00000000	     14.14650468	      7.87633569	     -2.70303429	    -16.95539438	     -1.06859598	      0.00000000	      0.00000000	     -5.98433402	     -7.83511259	      2.91049565	     12.84407437	     -9.05349978	     16.49014178	     41.74391356	     89.59874706	      0.00000000	      0.00000000	      5.76464747	    -11.34685468	     -1.28514260	    153.54164833	     81.13041416	      0.00000000	      0.00000000
      2.49000000	      2.16500222	      5.86247075	     -2.66630913	     -0.03977396	      0.87042288	      2.58447291	      6.45623498	     -8.41480931	     -1.57635690	    -63.39538743	    -15.42129038	      0.00000000	      0.00000000	     12.88180677	      7.60700062	     -3.38524874	    -16.36454527	     -0.37163001	      0.00000000	      0.00000000	     -6.04026708	     -7.63329902	      2.99849271	     12.69194166	     -8.97871691	     17.11635129	     40.15447387	     90.00778765	      0.00000000	      0.00000000	      5.54306081	    -11.48233260	     -1.96685641	    153.51545399	     80.82552066	      0.00000000	      0.00000000
